<?xml version="1.0" encoding="UTF-8"?>
<!DOCTYPE svg PUBLIC "-//W3C//DTD SVG 1.1//EN" "http://www.w3.org/Graphics/SVG/1.1/DTD/svg11.dtd">
<!-- Creator: CorelDRAW (Evaluation Version) -->
<?xml-stylesheet href="Acsss vote icon.css" type="text/css"?>
<svg xmlns="http://www.w3.org/2000/svg" xml:space="preserve" width="152.624mm" height="146.119mm" version="1.1" style="shape-rendering:geometricPrecision; text-rendering:geometricPrecision; image-rendering:optimizeQuality; fill-rule:evenodd; clip-rule:evenodd"
viewBox="0 0 15000.61 14361.31"
 xmlns:xlink="http://www.w3.org/1999/xlink"
 xmlns:xodm="http://www.corel.com/coreldraw/odm/2003">
 <g id="Layer_x0020_1">
  <metadata id="CorelCorpID_0Corel-Layer"/>
  <path class="fil0" d="M11653.2 11035.42c-1201.36,130.05 -2174.04,976.37 -2545.67,2113.09 -120.34,368.09 -214.28,675.81 124.15,789.1 1618.84,541.9 3504.47,543.56 5151.51,121.42 351.96,-90.21 678.04,-100.96 607.79,-538.97 -49.43,-308.26 -175.28,-638.29 -301.73,-879.81 -472.69,-902.89 -1553.39,-1765.36 -3036.06,-1604.84zm-7822.46 -8083.9c-13.47,-13.98 -26.1,-28.81 -37.47,-44.92 -31.6,-44.84 -53.43,-99.8 -56.21,-175.2 -10.55,-285.84 286.23,-427.58 520.6,-255.27l834.56 926.48 1257.07 -1325.83c117.44,-142.75 271.59,-293.16 452.77,-274.39 360.41,37.33 320.31,425.79 110.18,622.65 -523.7,561.75 -1010.36,1135.58 -1566.54,1657.14 -223.99,210.06 -415.5,68.16 -602.97,-143.53 -285.08,-321.94 -614.36,-677.93 -911.99,-987.15zm286.72 3889.79c102.1,-30.61 1229.74,-1016.57 1249.58,-1036.45 97.22,-97.44 111.03,-102.16 293.45,-106.23 491.49,-10.98 1000.47,3.76 1494.47,2.42 867.31,-2.35 1516.75,-548 1547.69,-1407.39l-4.54 -2969.9c-16.93,-204.87 -84.47,-408.19 -164.03,-558.09 -300.57,-566.29 -819.07,-767.09 -1484.51,-765.66 -982.31,2.11 -1964.87,0.08 -2947.2,0.1 -777.11,0 -1651.12,7.9 -1954.36,1021.97 -138.92,464.52 -66.06,2309.65 -66.61,2926.78 -1.02,1162.06 500.95,1714.86 1625.34,1784.24 17.93,198.6 7.28,407.67 1.27,608.48 -8.2,273.91 48.44,607.93 409.45,499.73zm5726.48 -3648c-252.87,254.04 -633.75,536.83 -435.75,787.67 277.19,351.13 664.92,-270.87 831.26,-377.87 132.92,106.21 523.54,685.73 803.19,421.52 180.46,-170.5 20.82,-390.18 -79.95,-486.85 -129.58,-124.3 -214.75,-213.13 -328.04,-344.27 201.86,-222.28 582.08,-493.5 468.1,-741.86 -153.63,-180.82 -326.56,-184.76 -489.5,-35.85 -122.01,111.5 -265.35,260.06 -373.8,378.86 -129.81,-92.64 -228.78,-219.05 -344.23,-338.93 -106.03,-110.08 -307.64,-238.23 -473.31,-50.72 -241.99,273.92 289.52,676.04 422.04,788.3zm1313.45 2577.13c-90.23,-33.25 -436.37,-340.59 -499.9,-401.74 -430.56,-414.42 -500.16,-303.26 -1388.88,-303.26 -570.01,0 -580.9,544.96 0,544.96 989.59,0 864.59,-4.57 1578.63,643.36 184.24,167.17 478.27,449.69 749.83,197.28 164.35,-152.77 112.62,-571.52 109.61,-831.04 1081.63,-141.84 1276.78,-711.51 1304.03,-1527.04 19.6,-587.14 44.31,-1488.82 -12.12,-2053.11 -67.95,-679.68 -359.08,-1267 -1476.25,-1266.97l-2011.02 0.14c-525.29,-0.15 -490.52,520.59 -71.37,548.12 1382.18,90.78 2966.62,-378.17 3024.9,719.03 19.2,361.61 38.42,2228.95 -27.63,2480.49 -81.17,309.15 -332.68,528.15 -705.8,543.72 -590.79,24.64 -574.24,103.08 -574.02,706.06zm-8443.11 1422.36c-862.91,159.18 -1605.23,945.44 -1424.47,1995.61 144.41,839.04 956.05,1600.91 1985.41,1426.34 873.39,-148.12 1602.19,-951.66 1434.87,-2008.1 -134.07,-846.56 -980.65,-1601.1 -1995.81,-1413.85zm8963.61 13.73c-292.8,63.54 -401.47,95.61 -634.44,249.84 -1556.44,1030.42 -586,3510.65 1304.92,3144.32 839.3,-162.6 1543.84,-997.06 1358.32,-2039.11 -149.22,-838.07 -1002.64,-1577.75 -2028.8,-1355.05zm-9038.44 3830.05c-1216.45,132.21 -2616.47,1298.68 -2639.34,2586.97 -3.92,221.46 102.23,265 273.39,324.99 1530.34,536.38 3585.84,520.79 5151.33,99.79 343.41,-92.35 635.04,-119.77 560.74,-538.97 -274.45,-1548.33 -1714.68,-2650.09 -3346.11,-2472.78z"/>
 </g>
</svg>
